<svg width="50" height="53" viewBox="0 0 50 53" fill="none" xmlns="http://www.w3.org/2000/svg">
<path d="M24.9906 0C23.7693 0.264706 13.0206 1.69401 11.6824 2.37313C11.3741 3.00018 10.7296 4.95655 10.5252 5.26609C9.66139 5.45486 6.16086 6.13109 5.94081 6.26055C5.81761 6.63663 5.01324 8.24223 4.82809 8.43027C4.08675 8.61831 0.630725 9.26905 0.199167 9.58293C-0.0472339 11.0873 -0.987973 26.1401 5.18416 35.9812C11.3563 45.8223 22.1513 52.3729 24.9906 53H25.0128C27.8522 52.3729 38.6249 45.8223 44.797 35.9812C50.9684 26.1394 50.0521 11.0873 49.8043 9.58293C49.372 9.26905 45.9153 8.61831 45.1754 8.43027C44.9902 8.24223 44.1865 6.63663 44.0626 6.26055C43.8433 6.13109 40.3435 5.45414 39.4782 5.26609C39.2738 4.95655 38.6301 3.00018 38.321 2.37313C36.9871 1.69618 26.229 0.269768 24.9906 0ZM24.9906 3.84222C26.0488 4.07221 35.2447 5.32034 36.3849 5.89893C36.6476 6.43485 37.1903 8.09776 37.364 8.36247C38.1025 8.52303 41.1151 9.08806 41.3031 9.19871C41.4085 9.51983 42.079 10.9141 42.2378 11.0746C42.8709 11.2352 45.8302 11.7789 46.1991 12.0465C46.4106 13.3324 47.2018 26.1912 41.9262 34.6025C36.6507 43.0145 27.4398 48.6225 25.0128 49.1577H24.9906C22.5636 48.6225 13.3528 43.0138 8.07723 34.6025C2.8024 26.1912 3.59359 13.3324 3.80438 12.0465C4.17398 11.7781 7.13258 11.2352 7.76567 11.0746C7.92448 10.9141 8.59496 9.51983 8.70036 9.19871C8.88836 9.08806 11.8786 8.52303 12.6171 8.36247C12.7916 8.09776 13.3551 6.43485 13.6186 5.89893C14.7616 5.31817 23.9466 4.06786 24.9906 3.84222Z" fill="white"/>
<path d="M26.6819 7.95535C26.3352 7.99007 26.2835 8.23651 26.2814 8.33957C26.2101 20.3786 26.244 33.1505 26.1478 45.5186C26.2262 45.9099 26.8406 45.3085 27.1938 45.1118C31.6902 42.6015 45.7148 28.8071 37.6534 23.8666C43.8262 19.7673 42.7261 15.8551 39.9901 13.7187C34.3328 9.29895 27.8783 8.20162 27.127 8.00055C26.9392 7.95029 26.7975 7.94378 26.6819 7.95535ZM30.4429 12.905C30.5305 12.8566 34.1567 14.2219 36.1401 15.5946C38.4139 17.1684 37.6441 18.6808 36.3181 19.595C35.5981 20.0933 31.1426 23.3432 30.3984 23.5276C30.382 22.9006 30.3788 15.8298 30.4429 12.905ZM33.7588 26.6692C34.2556 26.6847 34.7275 26.846 35.0718 27.2116C35.3795 27.5103 36.7356 28.995 33.8479 33.2462C32.7725 35.1743 30.5177 37.5927 30.2649 37.8342C30.2343 37.8429 30.2216 37.795 30.1981 37.8116C30.2216 36.4295 30.1851 29.7388 30.2649 27.8671C30.4246 27.7824 32.2685 26.6226 33.7588 26.6692Z" fill="white"/>
<path d="M11.3532 12.2905C10.9836 12.451 7.83522 14.4869 7.51831 14.8081C7.43072 17.6461 8.17989 25.303 10.9394 31.2791C11.2884 32.0349 11.6673 32.7437 12.0774 33.3852C12.8644 34.7652 12.9085 34.6559 13.8243 33.3346C14.4588 32.4631 15.3739 31.1706 15.6033 30.9045C15.9194 31.9756 17.964 38.6569 20.8396 42.6948C22.1144 44.4862 24.072 46.1786 24.0642 45.4814C23.9859 38.6591 23.7936 9.12773 24.0044 7.92426C23.1562 7.90401 20.3739 8.27214 19.8234 8.56216C19.7778 9.64196 20.2058 29.8912 19.9423 32.194C17.9932 27.3715 17.3281 14.6453 17.7133 9.39461C16.6587 9.60869 14.0864 10.6567 13.7175 11.032C13.2432 11.9961 13.8906 22.5699 14.5642 26.1188C14.3342 26.4869 13.6712 27.4865 13.5658 27.647C12.2313 25.209 10.9558 17.6714 11.3532 12.2905Z" fill="white"/>
</svg>
